<?xml version="1.0" standalone="no"?><!DOCTYPE svg PUBLIC "-//W3C//DTD SVG 1.1//EN" "http://www.w3.org/Graphics/SVG/1.1/DTD/svg11.dtd"><svg t="1625742348268" class="icon" viewBox="0 0 1024 1024" version="1.1" xmlns="http://www.w3.org/2000/svg" p-id="1718" xmlns:xlink="http://www.w3.org/1999/xlink" width="200" height="200"><defs><style type="text/css"></style></defs><path d="M806.4 358.4h-149.333333c-25.6 0-42.666667-17.066667-42.666667-42.666667V166.4c0-25.6 17.066667-42.666667 42.666667-42.666667h149.333333c25.6 0 42.666667 17.066667 42.666667 42.666667v149.333333c0 21.333333-17.066667 42.666667-42.666667 42.666667z m-102.4-85.333333H768V209.066667h-64v64zM264.533333 627.2H115.2c-25.6 0-42.666667-17.066667-42.666667-42.666667v-149.333333c0-25.6 17.066667-42.666667 42.666667-42.666667h149.333333c25.6 0 42.666667 17.066667 42.666667 42.666667v149.333333c0 25.6-17.066667 42.666667-42.666667 42.666667z m-106.666666-85.333333h64v-64H157.866667v64zM584.533333 900.266667h-149.333333c-25.6 0-42.666667-17.066667-42.666667-42.666667v-149.333333c0-25.6 17.066667-42.666667 42.666667-42.666667h149.333333c25.6 0 42.666667 17.066667 42.666667 42.666667v149.333333c0 25.6-17.066667 42.666667-42.666667 42.666667z m-102.4-85.333334h64v-64h-64v64z" p-id="1719"></path><path d="M981.333333 281.6h-174.933333c-25.6 0-42.666667-17.066667-42.666667-42.666667s17.066667-42.666667 42.666667-42.666666H981.333333c25.6 0 42.666667 17.066667 42.666667 42.666666s-17.066667 42.666667-42.666667 42.666667zM661.333333 281.6H42.666667c-25.6 0-42.666667-17.066667-42.666667-42.666667s17.066667-42.666667 42.666667-42.666666h618.666666c25.6 0 42.666667 17.066667 42.666667 42.666666s-21.333333 42.666667-42.666667 42.666667zM981.333333 554.666667H264.533333c-25.6 0-42.666667-17.066667-42.666666-42.666667s17.066667-42.666667 42.666666-42.666667H981.333333c25.6 0 42.666667 17.066667 42.666667 42.666667s-17.066667 42.666667-42.666667 42.666667zM115.2 554.666667H42.666667c-25.6 0-42.666667-17.066667-42.666667-42.666667s17.066667-42.666667 42.666667-42.666667h72.533333c25.6 0 42.666667 17.066667 42.666667 42.666667s-17.066667 42.666667-42.666667 42.666667zM981.333333 827.733333h-396.8c-25.6 0-42.666667-17.066667-42.666666-42.666666s17.066667-42.666667 42.666666-42.666667H981.333333c25.6 0 42.666667 17.066667 42.666667 42.666667s-17.066667 42.666667-42.666667 42.666666zM439.466667 827.733333H42.666667c-25.6 0-42.666667-17.066667-42.666667-42.666666s17.066667-42.666667 42.666667-42.666667h396.8c25.6 0 42.666667 17.066667 42.666666 42.666667s-21.333333 42.666667-42.666666 42.666666z" p-id="1720"></path></svg>